# xmcd CD database file
#
# Track frame offsets:
#	150
#	54592
#	96530
#	126907
#	153665
#	206407
#
# Disc length: 3183 seconds
#
# Revision: 0
# Processed by: cddbd v1.5.2PL0 Copyright (c) Steve Scherf et al.
# Submitted via: CDex 1.51
#
DISCID=540c6d06
DTITLE=Hitomi Nishiyama - In Stockholm
DYEAR=2008
DGENRE=Jazz
TTITLE0=In The Night Watch
TTITLE1=Bye For Now
TTITLE2=SAKIRA
TTITLE3=Carrying You
TTITLE4=Giraffe's Dance
TTITLE5=You're Not Alone
EXTD=YEAR: 2008
EXTT0=
EXTT1=
EXTT2=
EXTT3=
EXTT4=
EXTT5=
PLAYORDER=
